<svg id="Ebene_1" data-name="Ebene 1" xmlns="http://www.w3.org/2000/svg" viewBox="0 0 675 768"><defs><style>.cls-1{fill:#333;}.cls-2{opacity:0.5;}.cls-3{fill:#e40529;}</style></defs><title>symbol_connect</title><path class="cls-1" d="M577,480.3V340.7a50,50,0,1,0-40-91L387.53,100.31a50,50,0,1,0-24.41,18L516.67,271.89A50,50,0,0,0,547,340.7V470.78L391.68,315.46a50,50,0,0,0-79.41-58.41L154.35,99.13a50.1,50.1,0,1,0-23.77,18.67L297.66,284.88a50.14,50.14,0,0,0,3.39,27.85L138.68,475.1a50,50,0,1,0,20,22.48L320.7,335.52a49.33,49.33,0,0,0,11.3,5.19V470.3a50,50,0,0,0,0,95.4v82.6A50.11,50.11,0,0,0,299.29,681H160.7a50,50,0,1,0,0,30H299.3A50,50,0,1,0,362,648.3V565.7a50,50,0,0,0,0-95.4V340.71a48.94,48.94,0,0,0,8.77-3.72L526.54,492.76A50,50,0,1,0,577,480.3ZM361.14,85.14a20,20,0,1,1,0-28.28A19.86,19.86,0,0,1,361.14,85.14ZM125.42,86.66A19.72,19.72,0,0,1,113,91a20,20,0,1,1,12.42-4.34ZM113,538a20,20,0,1,1,20-20A20,20,0,0,1,113,538Zm0,178a20,20,0,1,1,20-20A20,20,0,0,1,113,716Zm254-20a20,20,0,1,1-20-20A20,20,0,0,1,367,696Zm0-178a20,20,0,1,1-20-20A20,20,0,0,1,367,518Zm-5.65-211.1,0,0,0,0a20,20,0,0,1-31.88-23.5A20,20,0,0,1,367,293,19.8,19.8,0,0,1,361.35,306.9ZM542,293a20,20,0,1,1,20,20A20,20,0,0,1,542,293Zm20,255a20,20,0,1,1,20-20A20,20,0,0,1,562,548Z"/><g class="cls-2"><path class="cls-3" d="M362,470.3V340.71a49.94,49.94,0,1,0-30,0V470.3a50,50,0,1,0,30,0ZM347,538a20,20,0,1,1,20-20A20,20,0,0,1,347,538ZM331.88,306.08a20,20,0,0,1-2.45-22.63A20,20,0,0,1,367,293a19.8,19.8,0,0,1-5.65,13.9l0,0,0,0a20,20,0,0,1-29.43-.87Z"/></g></svg>