<?xml version="1.0" encoding="utf-8"?>
<!-- Generator: Adobe Illustrator 22.1.0, SVG Export Plug-In . SVG Version: 6.00 Build 0)  -->
<svg version="1.1" id="Ebene_1" xmlns="http://www.w3.org/2000/svg" xmlns:xlink="http://www.w3.org/1999/xlink" x="0px" y="0px"
	 viewBox="0 0 675 768" style="enable-background:new 0 0 675 768;" xml:space="preserve">
<style type="text/css">
	.st0{fill:#FFFFFF;}
	.st1{fill:none;stroke:#000000;stroke-width:30;stroke-miterlimit:10;}
	.st2{opacity:0.3;}
	.st3{opacity:0.6;}
	.st4{fill:#F2F2F2;}
</style>
<g>
	<path d="M-931,51c11,0,20,9,20,20c0,6.1-2.8,11.8-7.6,15.7c-2.5,2-6.6,4.3-12.4,4.3c-11,0-20-9-20-20S-942,51-931,51L-931,51z
		 M-931,21c-27.6,0-50,22.4-50,50s22.4,50,50,50c11.8,0,22.6-4.1,31.1-10.9C-888.4,101-881,86.8-881,71C-881,43.4-903.4,21-931,21
		L-931,21z"/>
</g>
<g>
	<g>
		<path class="st0" d="M-697,106c-9.3,0-18.1-3.6-24.7-10.3c-13.6-13.6-13.6-35.9,0-49.5c6.6-6.6,15.4-10.3,24.7-10.3
			s18.1,3.6,24.7,10.3c13.6,13.6,13.6,35.9,0,49.5C-678.9,102.4-687.7,106-697,106z"/>
	</g>
	<g>
		<path d="M-697,51c5.3,0,10.4,2.1,14.1,5.9c7.8,7.8,7.8,20.5,0,28.3c-3.8,3.8-8.8,5.9-14.1,5.9c-5.3,0-10.4-2.1-14.1-5.9
			c-7.8-7.8-7.8-20.5,0-28.3C-707.4,53.1-702.3,51-697,51L-697,51z M-697,21c-12.8,0-25.6,4.9-35.4,14.6
			c-19.5,19.5-19.5,51.2,0,70.7c9.8,9.8,22.6,14.6,35.4,14.6c12.8,0,25.6-4.9,35.4-14.6c19.5-19.5,19.5-51.2,0-70.7
			C-671.4,25.9-684.2,21-697,21L-697,21z"/>
	</g>
</g>
<g>
	<path d="M-697,273c11,0,20,9,20,20c0,5.2-2,10.2-5.6,13.9l0,0l0,0c-3.8,3.9-8.9,6-14.3,6c-5.8,0-11.3-2.5-15.1-6.9
		c-2.2-2.6-4.9-6.9-4.9-13.1c0-3.4,0.8-6.6,2.4-9.6C-711.1,277-704.3,273-697,273L-697,273z M-697,243c-19,0-35.4,10.6-43.9,26.1
		c-3.9,7.1-6.1,15.2-6.1,23.9c0,12.5,4.6,24,12.2,32.8c9.2,10.6,22.7,17.2,37.8,17.2c14.1,0,26.8-5.8,35.8-15.2
		c8.8-9,14.2-21.3,14.2-34.8C-647,265.4-669.4,243-697,243L-697,243z"/>
</g>
<g>
	<g>
		<circle class="st0" cx="-482" cy="528" r="35"/>
	</g>
	<g>
		<path d="M-482,508c11,0,20,9,20,20s-9,20-20,20s-20-9-20-20S-493,508-482,508L-482,508z M-482,478c-27.6,0-50,22.4-50,50
			s22.4,50,50,50s50-22.4,50-50S-454.4,478-482,478L-482,478z"/>
	</g>
</g>
<g>
	<g>
		<circle class="st0" cx="-482" cy="293" r="35"/>
	</g>
	<g>
		<path d="M-482,273c11,0,20,9,20,20s-9,20-20,20s-20-9-20-20S-493,273-482,273L-482,273z M-482,243c-27.6,0-50,22.4-50,50
			s22.4,50,50,50s50-22.4,50-50S-454.4,243-482,243L-482,243z"/>
	</g>
</g>
<g>
	<g>
		<circle class="st0" cx="-697" cy="696" r="35"/>
	</g>
	<g>
		<path d="M-697,676c11,0,20,9,20,20s-9,20-20,20s-20-9-20-20S-708,676-697,676L-697,676z M-697,646c-27.6,0-50,22.4-50,50
			s22.4,50,50,50s50-22.4,50-50S-669.4,646-697,646L-697,646z"/>
	</g>
</g>
<g>
	<g>
		<circle class="st0" cx="-931" cy="696" r="35"/>
	</g>
	<g>
		<path d="M-931,676c11,0,20,9,20,20s-9,20-20,20s-20-9-20-20S-942,676-931,676L-931,676z M-931,646c-27.6,0-50,22.4-50,50
			s22.4,50,50,50s50-22.4,50-50S-903.4,646-931,646L-931,646z"/>
	</g>
</g>
<g>
	<g>
		<circle class="st0" cx="-697" cy="518" r="35"/>
	</g>
	<g>
		<path d="M-697,498c11,0,20,9,20,20s-9,20-20,20s-20-9-20-20S-708,498-697,498L-697,498z M-697,468c-27.6,0-50,22.4-50,50
			s22.4,50,50,50s50-22.4,50-50S-669.4,468-697,468L-697,468z"/>
	</g>
</g>
<g>
	<g>
		<circle class="st0" cx="-931" cy="518" r="35"/>
	</g>
	<g>
		<path d="M-931,498c11,0,20,9,20,20s-9,20-20,20s-20-9-20-20S-942,498-931,498L-931,498z M-931,468c-27.6,0-50,22.4-50,50
			s22.4,50,50,50s50-22.4,50-50S-903.4,468-931,468L-931,468z"/>
	</g>
</g>
<g>
	<rect x="-712" y="330" width="30" height="153"/>
</g>
<g>
	<rect x="-597.5" y="281.3" transform="matrix(0.7071 -0.7071 0.7071 0.7071 -458.0492 -292.8286)" width="30" height="250.3"/>
</g>
<g>
	<rect x="-834.2" y="65.2" transform="matrix(0.7071 -0.7071 0.7071 0.7071 -374.8334 -523.4279)" width="30" height="251"/>
</g>
<g>
	<rect x="-712" y="554" width="30" height="112"/>
</g>
<g>
	<rect x="-943.3" y="392" transform="matrix(0.7071 -0.7071 0.7071 0.7071 -526.7933 -457.7916)" width="254.6" height="30"/>
</g>
<g>
	<rect x="-497" y="322" width="30" height="169"/>
</g>
<line class="st1" x1="-895" y1="696" x2="-726" y2="696"/>
<g>
	<rect x="-606.7" y="68.5" transform="matrix(0.7071 -0.7071 0.7071 0.7071 -305.0182 -363.8791)" width="30" height="235.5"/>
</g>
<g class="st2">
	<path class="st0" d="M577,480.3V340.7c20.3-6.4,35-25.3,35-47.7c0-27.6-22.4-50-50-50c-9.1,0-17.7,2.5-25,6.7L387.5,100.3
		c14.2-19.5,12.4-47-5.2-64.7C372.6,25.9,359.8,21,347,21s-25.6,4.9-35.4,14.6c-19.5,19.5-19.5,51.2,0,70.7
		c9.8,9.8,22.6,14.6,35.4,14.6c5.5,0,10.9-0.9,16.1-2.7l153.5,153.6c-3,6.4-4.7,13.6-4.7,21.1c0,22.4,14.7,41.3,35,47.7v130.1
		L391.7,315.5c3.4-6.8,5.3-14.4,5.3-22.5c0-27.6-22.4-50-50-50c-13.5,0-25.7,5.3-34.7,14L154.3,99.1c5.5-8,8.7-17.7,8.7-28.1
		c0-27.6-22.4-50-50-50S63,43.4,63,71s22.4,50,50,50c6.2,0,12.1-1.1,17.6-3.2l167.1,167.1c-0.4,2.6-0.7,5.3-0.7,8.1
		c0,7,1.4,13.7,4,19.7L138.7,475.1c-7.5-4.5-16.3-7.1-25.7-7.1c-27.6,0-50,22.4-50,50s22.4,50,50,50s50-22.4,50-50
		c0-7.3-1.6-14.2-4.4-20.4l162.1-162.1c3.5,2.2,7.3,3.9,11.3,5.2v129.6c-20.3,6.4-35,25.3-35,47.7s14.7,41.3,35,47.7v82.6
		c-15.5,4.9-27.8,17.2-32.7,32.7H160.7c-6.4-20.3-25.3-35-47.7-35c-27.6,0-50,22.4-50,50s22.4,50,50,50c22.4,0,41.3-14.7,47.7-35
		h138.6c6.4,20.3,25.3,35,47.7,35c27.6,0,50-22.4,50-50c0-22.4-14.7-41.3-35-47.7v-82.6c20.3-6.4,35-25.3,35-47.7
		s-14.7-41.3-35-47.7V340.7c3.1-1,6-2.2,8.8-3.7l155.8,155.8c-9,9-14.5,21.5-14.5,35.2c0,27.6,22.4,50,50,50s50-22.4,50-50
		C612,505.6,597.3,486.7,577,480.3z M361.1,85.1c-3.8,3.8-8.8,5.9-14.1,5.9s-10.4-2.1-14.1-5.9c-7.8-7.8-7.8-20.5,0-28.3
		c3.8-3.8,8.8-5.9,14.1-5.9s10.4,2.1,14.1,5.9C368.9,64.7,368.9,77.3,361.1,85.1z M125.4,86.7c-2.5,2-6.6,4.3-12.4,4.3
		c-11,0-20-9-20-20c0-11,9-20,20-20s20,9,20,20C133,77.1,130.2,82.8,125.4,86.7z M113,538c-11,0-20-9-20-20c0-11,9-20,20-20
		s20,9,20,20C133,529,124,538,113,538z M113,716c-11,0-20-9-20-20c0-11,9-20,20-20s20,9,20,20C133,707,124,716,113,716z M367,696
		c0,11-9,20-20,20s-20-9-20-20c0-11,9-20,20-20S367,685,367,696z M367,518c0,11-9,20-20,20s-20-9-20-20c0-11,9-20,20-20
		S367,507,367,518z M361.3,306.9L361.3,306.9L361.3,306.9c-3.8,4-8.9,6.1-14.3,6.1c-5.8,0-11.3-2.5-15.1-6.9
		c-2.2-2.6-4.9-6.9-4.9-13.1c0-3.4,0.8-6.6,2.4-9.5c3.5-6.5,10.2-10.5,17.6-10.5c11,0,20,9,20,20C367,298.2,365,303.2,361.3,306.9z
		 M542,293c0-11,9-20,20-20s20,9,20,20c0,11-9,20-20,20S542,304,542,293z M562,548c-11,0-20-9-20-20c0-11,9-20,20-20s20,9,20,20
		C582,539,573,548,562,548z"/>
</g>
<g class="st3">
	<path class="st4" d="M362,470.3V340.7c8-2.5,15.1-7,20.8-12.9c8.8-9,14.2-21.3,14.2-34.8c0-27.6-22.4-50-50-50
		c-19,0-35.4,10.5-43.9,26.1c-3.9,7.1-6.1,15.2-6.1,23.9c0,12.5,4.6,24,12.2,32.8c6,6.9,13.8,12.1,22.8,14.9v129.6
		c-20.3,6.4-35,25.3-35,47.7c0,27.6,22.4,50,50,50s50-22.4,50-50C397,495.6,382.3,476.7,362,470.3z M347,538c-11,0-20-9-20-20
		c0-11,9-20,20-20s20,9,20,20C367,529,358,538,347,538z M331.9,306.1c-2.2-2.6-4.9-6.9-4.9-13.1c0-3.4,0.8-6.6,2.4-9.5
		c3.5-6.5,10.2-10.5,17.6-10.5c11,0,20,9,20,20c0,5.2-2,10.2-5.7,13.9l0,0l0,0c-3.8,3.9-8.9,6-14.3,6
		C341.2,313,335.7,310.5,331.9,306.1z"/>
</g>
</svg>
